<mxfile host="app.diagrams.net" modified="2022-03-30T19:06:57.138Z" agent="5.0 (Windows NT 10.0; Win64; x64) AppleWebKit/537.36 (KHTML, like Gecko) Chrome/99.0.4844.88 Safari/537.36" etag="wn0rB9U0PjqgPx0W_oa2" version="17.3.0" type="github" pages="2">
  <diagram id="JWzHGEEmHOpxPtbiXyBe" name="4.2">
    <mxGraphModel dx="387" dy="427" grid="1" gridSize="10" guides="1" tooltips="1" connect="1" arrows="1" fold="1" page="1" pageScale="1" pageWidth="850" pageHeight="1100" math="0" shadow="0">
      <root>
        <mxCell id="0" />
        <mxCell id="1" parent="0" />
        <mxCell id="SoTEVqlD-ZGMPwPlBJG8-1" value="Assignment Submission" style="swimlane;swimlaneLine=1;fillColor=#fff2cc;strokeColor=#d6b656;" parent="1" vertex="1">
          <mxGeometry x="25" y="40" width="800" height="686" as="geometry" />
        </mxCell>
        <mxCell id="N_ucVqVdbEi61Vxu9FL0-21" style="edgeStyle=orthogonalEdgeStyle;rounded=0;orthogonalLoop=1;jettySize=auto;html=1;exitX=1;exitY=0.5;exitDx=0;exitDy=0;entryX=0;entryY=0.5;entryDx=0;entryDy=0;dashed=1;fontSize=9;endArrow=none;endFill=0;" edge="1" parent="SoTEVqlD-ZGMPwPlBJG8-1" source="N_ucVqVdbEi61Vxu9FL0-1" target="N_ucVqVdbEi61Vxu9FL0-16">
          <mxGeometry relative="1" as="geometry" />
        </mxCell>
        <mxCell id="SoTEVqlD-ZGMPwPlBJG8-13" style="edgeStyle=none;rounded=0;orthogonalLoop=1;jettySize=auto;html=1;endArrow=block;endFill=1;exitX=0.04;exitY=-0.026;exitDx=0;exitDy=0;exitPerimeter=0;entryX=0;entryY=1;entryDx=0;entryDy=0;" parent="SoTEVqlD-ZGMPwPlBJG8-1" source="SoTEVqlD-ZGMPwPlBJG8-26" target="SoTEVqlD-ZGMPwPlBJG8-7" edge="1">
          <mxGeometry relative="1" as="geometry">
            <mxPoint x="81" y="126" as="sourcePoint" />
            <mxPoint x="201" y="126" as="targetPoint" />
          </mxGeometry>
        </mxCell>
        <mxCell id="SoTEVqlD-ZGMPwPlBJG8-15" value="Login Request" style="edgeLabel;html=1;align=center;verticalAlign=middle;resizable=0;points=[];fontSize=9;labelBackgroundColor=none;" parent="SoTEVqlD-ZGMPwPlBJG8-13" connectable="0" vertex="1">
          <mxGeometry x="-0.2034" y="-1" relative="1" as="geometry">
            <mxPoint x="3" y="-8" as="offset" />
          </mxGeometry>
        </mxCell>
        <mxCell id="SoTEVqlD-ZGMPwPlBJG8-2" value="Student" style="shape=umlActor;verticalLabelPosition=bottom;verticalAlign=top;html=1;outlineConnect=0;" parent="SoTEVqlD-ZGMPwPlBJG8-1" vertex="1">
          <mxGeometry x="52" y="37" width="22" height="39" as="geometry" />
        </mxCell>
        <mxCell id="SoTEVqlD-ZGMPwPlBJG8-14" style="edgeStyle=none;rounded=0;orthogonalLoop=1;jettySize=auto;html=1;exitX=0.5;exitY=1;exitDx=0;exitDy=0;entryX=0;entryY=0.5;entryDx=0;entryDy=0;endArrow=none;endFill=0;dashed=1;" parent="SoTEVqlD-ZGMPwPlBJG8-1" source="SoTEVqlD-ZGMPwPlBJG8-3" target="SoTEVqlD-ZGMPwPlBJG8-7" edge="1">
          <mxGeometry relative="1" as="geometry" />
        </mxCell>
        <mxCell id="SoTEVqlD-ZGMPwPlBJG8-3" value="elearning.ua.pt" style="rounded=0;whiteSpace=wrap;html=1;" parent="SoTEVqlD-ZGMPwPlBJG8-1" vertex="1">
          <mxGeometry x="159.98999999999998" y="37" width="100" height="40" as="geometry" />
        </mxCell>
        <mxCell id="SoTEVqlD-ZGMPwPlBJG8-17" style="edgeStyle=none;rounded=0;orthogonalLoop=1;jettySize=auto;html=1;exitX=0.5;exitY=1;exitDx=0;exitDy=0;entryX=0;entryY=0.5;entryDx=0;entryDy=0;dashed=1;endArrow=none;endFill=0;" parent="SoTEVqlD-ZGMPwPlBJG8-1" source="SoTEVqlD-ZGMPwPlBJG8-4" target="SoTEVqlD-ZGMPwPlBJG8-16" edge="1">
          <mxGeometry relative="1" as="geometry" />
        </mxCell>
        <mxCell id="SoTEVqlD-ZGMPwPlBJG8-4" value="Idp.ua.pt" style="rounded=0;whiteSpace=wrap;html=1;" parent="SoTEVqlD-ZGMPwPlBJG8-1" vertex="1">
          <mxGeometry x="360" y="36" width="100" height="40" as="geometry" />
        </mxCell>
        <mxCell id="SoTEVqlD-ZGMPwPlBJG8-18" style="edgeStyle=none;rounded=0;orthogonalLoop=1;jettySize=auto;html=1;endArrow=block;endFill=1;exitX=1;exitY=0;exitDx=0;exitDy=0;entryX=0.016;entryY=0.981;entryDx=0;entryDy=0;entryPerimeter=0;" parent="SoTEVqlD-ZGMPwPlBJG8-1" source="SoTEVqlD-ZGMPwPlBJG8-7" target="SoTEVqlD-ZGMPwPlBJG8-16" edge="1">
          <mxGeometry relative="1" as="geometry">
            <mxPoint x="220" y="206" as="sourcePoint" />
            <mxPoint x="400" y="206" as="targetPoint" />
          </mxGeometry>
        </mxCell>
        <mxCell id="SoTEVqlD-ZGMPwPlBJG8-40" style="edgeStyle=none;rounded=0;orthogonalLoop=1;jettySize=auto;html=1;exitX=1;exitY=0.5;exitDx=0;exitDy=0;entryX=0;entryY=0.5;entryDx=0;entryDy=0;dashed=1;fontSize=10;endArrow=none;endFill=0;" parent="SoTEVqlD-ZGMPwPlBJG8-1" source="SoTEVqlD-ZGMPwPlBJG8-7" target="SoTEVqlD-ZGMPwPlBJG8-39" edge="1">
          <mxGeometry relative="1" as="geometry" />
        </mxCell>
        <mxCell id="SoTEVqlD-ZGMPwPlBJG8-7" value="" style="rounded=0;whiteSpace=wrap;html=1;rotation=90;" parent="SoTEVqlD-ZGMPwPlBJG8-1" vertex="1">
          <mxGeometry x="170.42" y="160.72" width="79.16" height="10" as="geometry" />
        </mxCell>
        <mxCell id="SoTEVqlD-ZGMPwPlBJG8-30" style="edgeStyle=orthogonalEdgeStyle;curved=1;rounded=0;orthogonalLoop=1;jettySize=auto;html=1;fontSize=10;endArrow=open;endFill=0;dashed=1;exitX=0.167;exitY=0.981;exitDx=0;exitDy=0;exitPerimeter=0;entryX=0.225;entryY=-0.005;entryDx=0;entryDy=0;entryPerimeter=0;" parent="SoTEVqlD-ZGMPwPlBJG8-1" source="SoTEVqlD-ZGMPwPlBJG8-16" target="SoTEVqlD-ZGMPwPlBJG8-26" edge="1">
          <mxGeometry relative="1" as="geometry">
            <mxPoint x="401.5" y="226" as="sourcePoint" />
            <mxPoint x="81.5" y="226" as="targetPoint" />
          </mxGeometry>
        </mxCell>
        <mxCell id="SoTEVqlD-ZGMPwPlBJG8-36" style="rounded=0;orthogonalLoop=1;jettySize=auto;html=1;fontSize=10;endArrow=open;endFill=0;dashed=1;exitX=0.979;exitY=0.988;exitDx=0;exitDy=0;exitPerimeter=0;entryX=0.066;entryY=-0.003;entryDx=0;entryDy=0;entryPerimeter=0;" parent="SoTEVqlD-ZGMPwPlBJG8-1" source="SoTEVqlD-ZGMPwPlBJG8-16" target="SoTEVqlD-ZGMPwPlBJG8-39" edge="1">
          <mxGeometry relative="1" as="geometry">
            <mxPoint x="400" y="337" as="sourcePoint" />
            <mxPoint x="230" y="337" as="targetPoint" />
          </mxGeometry>
        </mxCell>
        <mxCell id="SoTEVqlD-ZGMPwPlBJG8-16" value="" style="rounded=0;whiteSpace=wrap;html=1;rotation=90;" parent="SoTEVqlD-ZGMPwPlBJG8-1" vertex="1">
          <mxGeometry x="341.5" y="266.5" width="137" height="10" as="geometry" />
        </mxCell>
        <mxCell id="SoTEVqlD-ZGMPwPlBJG8-21" value="&lt;font style=&quot;font-size: 9px;&quot;&gt;Check if active session&lt;/font&gt;" style="text;html=1;align=center;verticalAlign=middle;resizable=0;points=[];autosize=1;strokeColor=none;fillColor=none;fontSize=9;" parent="SoTEVqlD-ZGMPwPlBJG8-1" vertex="1">
          <mxGeometry x="230" y="149.46" width="110" height="20" as="geometry" />
        </mxCell>
        <mxCell id="SoTEVqlD-ZGMPwPlBJG8-24" value="User Authentication Request" style="text;html=1;align=center;verticalAlign=middle;resizable=0;points=[];autosize=1;strokeColor=none;fillColor=none;fontSize=9;" parent="SoTEVqlD-ZGMPwPlBJG8-1" vertex="1">
          <mxGeometry x="250" y="185" width="130" height="20" as="geometry" />
        </mxCell>
        <mxCell id="SoTEVqlD-ZGMPwPlBJG8-26" value="" style="rounded=0;whiteSpace=wrap;html=1;rotation=90;" parent="SoTEVqlD-ZGMPwPlBJG8-1" vertex="1">
          <mxGeometry x="-208.71" y="370.72" width="543.43" height="10" as="geometry" />
        </mxCell>
        <mxCell id="SoTEVqlD-ZGMPwPlBJG8-31" value="Login form" style="text;html=1;align=center;verticalAlign=middle;resizable=0;points=[];autosize=1;strokeColor=none;fillColor=none;fontSize=9;" parent="SoTEVqlD-ZGMPwPlBJG8-1" vertex="1">
          <mxGeometry x="111" y="205" width="60" height="20" as="geometry" />
        </mxCell>
        <mxCell id="SoTEVqlD-ZGMPwPlBJG8-32" value="" style="endArrow=block;html=1;rounded=0;fontSize=10;curved=1;endFill=1;exitX=0.278;exitY=0.002;exitDx=0;exitDy=0;exitPerimeter=0;entryX=0.379;entryY=1.016;entryDx=0;entryDy=0;entryPerimeter=0;" parent="SoTEVqlD-ZGMPwPlBJG8-1" source="SoTEVqlD-ZGMPwPlBJG8-26" target="SoTEVqlD-ZGMPwPlBJG8-16" edge="1">
          <mxGeometry width="50" height="50" relative="1" as="geometry">
            <mxPoint x="81.5" y="255" as="sourcePoint" />
            <mxPoint x="401.5" y="255" as="targetPoint" />
          </mxGeometry>
        </mxCell>
        <mxCell id="SoTEVqlD-ZGMPwPlBJG8-33" value="Username / Password" style="text;html=1;align=center;verticalAlign=middle;resizable=0;points=[];autosize=1;strokeColor=none;fillColor=none;fontSize=9;" parent="SoTEVqlD-ZGMPwPlBJG8-1" vertex="1">
          <mxGeometry x="266.5" y="236" width="100" height="20" as="geometry" />
        </mxCell>
        <mxCell id="SoTEVqlD-ZGMPwPlBJG8-34" style="edgeStyle=orthogonalEdgeStyle;curved=1;rounded=0;orthogonalLoop=1;jettySize=auto;html=1;exitX=0.5;exitY=0;exitDx=0;exitDy=0;entryX=0.75;entryY=0;entryDx=0;entryDy=0;fontSize=10;endArrow=block;endFill=1;" parent="SoTEVqlD-ZGMPwPlBJG8-1" source="SoTEVqlD-ZGMPwPlBJG8-16" target="SoTEVqlD-ZGMPwPlBJG8-16" edge="1">
          <mxGeometry relative="1" as="geometry">
            <Array as="points">
              <mxPoint x="440" y="271" />
              <mxPoint x="440" y="306" />
            </Array>
          </mxGeometry>
        </mxCell>
        <mxCell id="SoTEVqlD-ZGMPwPlBJG8-35" value="Authenticate user" style="text;html=1;align=center;verticalAlign=middle;resizable=0;points=[];autosize=1;strokeColor=none;fillColor=none;fontSize=9;" parent="SoTEVqlD-ZGMPwPlBJG8-1" vertex="1">
          <mxGeometry x="437" y="278" width="90" height="20" as="geometry" />
        </mxCell>
        <mxCell id="SoTEVqlD-ZGMPwPlBJG8-38" value="id_token" style="text;html=1;align=center;verticalAlign=middle;resizable=0;points=[];autosize=1;strokeColor=none;fillColor=none;fontSize=9;" parent="SoTEVqlD-ZGMPwPlBJG8-1" vertex="1">
          <mxGeometry x="290" y="317" width="50" height="20" as="geometry" />
        </mxCell>
        <mxCell id="SoTEVqlD-ZGMPwPlBJG8-41" style="edgeStyle=none;rounded=0;orthogonalLoop=1;jettySize=auto;html=1;dashed=1;fontSize=10;endArrow=open;endFill=0;exitX=0.135;exitY=1.005;exitDx=0;exitDy=0;exitPerimeter=0;entryX=0.446;entryY=0.004;entryDx=0;entryDy=0;entryPerimeter=0;" parent="SoTEVqlD-ZGMPwPlBJG8-1" source="SoTEVqlD-ZGMPwPlBJG8-39" target="SoTEVqlD-ZGMPwPlBJG8-26" edge="1">
          <mxGeometry relative="1" as="geometry">
            <mxPoint x="201" y="346" as="sourcePoint" />
            <mxPoint x="71" y="346" as="targetPoint" />
          </mxGeometry>
        </mxCell>
        <mxCell id="SoTEVqlD-ZGMPwPlBJG8-44" style="edgeStyle=none;rounded=0;orthogonalLoop=1;jettySize=auto;html=1;fontSize=10;endArrow=block;endFill=1;exitX=0.443;exitY=-0.002;exitDx=0;exitDy=0;exitPerimeter=0;entryX=-0.003;entryY=0.53;entryDx=0;entryDy=0;entryPerimeter=0;" parent="SoTEVqlD-ZGMPwPlBJG8-1" source="SoTEVqlD-ZGMPwPlBJG8-39" target="SoTEVqlD-ZGMPwPlBJG8-43" edge="1">
          <mxGeometry relative="1" as="geometry">
            <mxPoint x="220" y="386" as="sourcePoint" />
            <mxPoint x="490" y="386" as="targetPoint" />
          </mxGeometry>
        </mxCell>
        <mxCell id="N_ucVqVdbEi61Vxu9FL0-32" style="rounded=0;orthogonalLoop=1;jettySize=auto;html=1;exitX=1;exitY=0.5;exitDx=0;exitDy=0;entryX=0;entryY=0.5;entryDx=0;entryDy=0;fontSize=9;endArrow=none;endFill=0;dashed=1;" edge="1" parent="SoTEVqlD-ZGMPwPlBJG8-1" source="SoTEVqlD-ZGMPwPlBJG8-39" target="N_ucVqVdbEi61Vxu9FL0-29">
          <mxGeometry relative="1" as="geometry" />
        </mxCell>
        <mxCell id="SoTEVqlD-ZGMPwPlBJG8-39" value="" style="rounded=0;whiteSpace=wrap;html=1;rotation=90;" parent="SoTEVqlD-ZGMPwPlBJG8-1" vertex="1">
          <mxGeometry x="145.02" y="388.46" width="129.94" height="10" as="geometry" />
        </mxCell>
        <mxCell id="SoTEVqlD-ZGMPwPlBJG8-42" value="id_token" style="text;html=1;align=center;verticalAlign=middle;resizable=0;points=[];autosize=1;strokeColor=none;fillColor=none;fontSize=9;" parent="SoTEVqlD-ZGMPwPlBJG8-1" vertex="1">
          <mxGeometry x="116" y="326" width="50" height="20" as="geometry" />
        </mxCell>
        <mxCell id="N_ucVqVdbEi61Vxu9FL0-2" style="edgeStyle=orthogonalEdgeStyle;rounded=0;orthogonalLoop=1;jettySize=auto;html=1;exitX=0.5;exitY=1;exitDx=0;exitDy=0;entryX=0;entryY=0.5;entryDx=0;entryDy=0;endArrow=none;endFill=0;dashed=1;" edge="1" parent="SoTEVqlD-ZGMPwPlBJG8-1" source="SoTEVqlD-ZGMPwPlBJG8-43" target="N_ucVqVdbEi61Vxu9FL0-1">
          <mxGeometry relative="1" as="geometry" />
        </mxCell>
        <mxCell id="SoTEVqlD-ZGMPwPlBJG8-43" value="UC" style="rounded=0;whiteSpace=wrap;html=1;" parent="SoTEVqlD-ZGMPwPlBJG8-1" vertex="1">
          <mxGeometry x="493.99" y="364.88" width="100" height="40" as="geometry" />
        </mxCell>
        <mxCell id="SoTEVqlD-ZGMPwPlBJG8-45" value="" style="endArrow=block;html=1;rounded=0;fontSize=10;endFill=1;exitX=0.498;exitY=-0.002;exitDx=0;exitDy=0;exitPerimeter=0;entryX=0.358;entryY=1.005;entryDx=0;entryDy=0;entryPerimeter=0;" parent="SoTEVqlD-ZGMPwPlBJG8-1" target="SoTEVqlD-ZGMPwPlBJG8-39" edge="1" source="SoTEVqlD-ZGMPwPlBJG8-26">
          <mxGeometry width="50" height="50" relative="1" as="geometry">
            <mxPoint x="81" y="374.38" as="sourcePoint" />
            <mxPoint x="201" y="375.38" as="targetPoint" />
          </mxGeometry>
        </mxCell>
        <mxCell id="SoTEVqlD-ZGMPwPlBJG8-46" value="Select UC" style="text;html=1;align=center;verticalAlign=middle;resizable=0;points=[];autosize=1;strokeColor=none;fillColor=none;fontSize=9;" parent="SoTEVqlD-ZGMPwPlBJG8-1" vertex="1">
          <mxGeometry x="106" y="354.88" width="60" height="20" as="geometry" />
        </mxCell>
        <mxCell id="SoTEVqlD-ZGMPwPlBJG8-47" value="Request UC Contents" style="text;html=1;align=center;verticalAlign=middle;resizable=0;points=[];autosize=1;strokeColor=none;fillColor=none;fontSize=9;" parent="SoTEVqlD-ZGMPwPlBJG8-1" vertex="1">
          <mxGeometry x="326.5" y="364.88" width="100" height="20" as="geometry" />
        </mxCell>
        <mxCell id="N_ucVqVdbEi61Vxu9FL0-1" value="" style="rounded=0;whiteSpace=wrap;html=1;rotation=90;" vertex="1" parent="SoTEVqlD-ZGMPwPlBJG8-1">
          <mxGeometry x="519.91" y="439.07" width="48.17" height="10" as="geometry" />
        </mxCell>
        <mxCell id="N_ucVqVdbEi61Vxu9FL0-3" style="rounded=0;orthogonalLoop=1;jettySize=auto;html=1;fontSize=10;endArrow=open;endFill=0;dashed=1;exitX=0.12;exitY=0.996;exitDx=0;exitDy=0;exitPerimeter=0;entryX=0.75;entryY=0;entryDx=0;entryDy=0;" edge="1" parent="SoTEVqlD-ZGMPwPlBJG8-1" source="N_ucVqVdbEi61Vxu9FL0-1" target="SoTEVqlD-ZGMPwPlBJG8-39">
          <mxGeometry relative="1" as="geometry">
            <mxPoint x="529.5" y="426" as="sourcePoint" />
            <mxPoint x="223.5" y="426" as="targetPoint" />
          </mxGeometry>
        </mxCell>
        <mxCell id="N_ucVqVdbEi61Vxu9FL0-4" value="UC Contents" style="text;html=1;align=center;verticalAlign=middle;resizable=0;points=[];autosize=1;strokeColor=none;fillColor=none;fontSize=9;" vertex="1" parent="SoTEVqlD-ZGMPwPlBJG8-1">
          <mxGeometry x="341.5" y="406" width="70" height="20" as="geometry" />
        </mxCell>
        <mxCell id="N_ucVqVdbEi61Vxu9FL0-5" value="" style="endArrow=block;html=1;rounded=0;fontSize=10;endFill=1;exitX=0.629;exitY=0.003;exitDx=0;exitDy=0;exitPerimeter=0;entryX=0.911;entryY=1.004;entryDx=0;entryDy=0;entryPerimeter=0;" edge="1" parent="SoTEVqlD-ZGMPwPlBJG8-1" source="SoTEVqlD-ZGMPwPlBJG8-26" target="SoTEVqlD-ZGMPwPlBJG8-39">
          <mxGeometry width="50" height="50" relative="1" as="geometry">
            <mxPoint x="76" y="446" as="sourcePoint" />
            <mxPoint x="196" y="447" as="targetPoint" />
          </mxGeometry>
        </mxCell>
        <mxCell id="N_ucVqVdbEi61Vxu9FL0-6" value="Submission request" style="text;html=1;align=center;verticalAlign=middle;resizable=0;points=[];autosize=1;strokeColor=none;fillColor=none;fontSize=9;" vertex="1" parent="SoTEVqlD-ZGMPwPlBJG8-1">
          <mxGeometry x="91" y="426" width="90" height="20" as="geometry" />
        </mxCell>
        <mxCell id="N_ucVqVdbEi61Vxu9FL0-7" value="" style="endArrow=block;html=1;rounded=0;fontSize=10;endFill=1;exitX=0.981;exitY=0;exitDx=0;exitDy=0;exitPerimeter=0;entryX=0.767;entryY=0.996;entryDx=0;entryDy=0;entryPerimeter=0;" edge="1" parent="SoTEVqlD-ZGMPwPlBJG8-1" source="SoTEVqlD-ZGMPwPlBJG8-39" target="N_ucVqVdbEi61Vxu9FL0-1">
          <mxGeometry width="50" height="50" relative="1" as="geometry">
            <mxPoint x="220" y="456.0000000000001" as="sourcePoint" />
            <mxPoint x="530" y="457" as="targetPoint" />
          </mxGeometry>
        </mxCell>
        <mxCell id="N_ucVqVdbEi61Vxu9FL0-8" value="Submission request" style="text;html=1;align=center;verticalAlign=middle;resizable=0;points=[];autosize=1;strokeColor=none;fillColor=none;fontSize=9;" vertex="1" parent="SoTEVqlD-ZGMPwPlBJG8-1">
          <mxGeometry x="331.5" y="436" width="90" height="20" as="geometry" />
        </mxCell>
        <mxCell id="N_ucVqVdbEi61Vxu9FL0-11" style="edgeStyle=orthogonalEdgeStyle;rounded=0;orthogonalLoop=1;jettySize=auto;html=1;exitX=0.5;exitY=1;exitDx=0;exitDy=0;entryX=0;entryY=0.5;entryDx=0;entryDy=0;dashed=1;fontSize=9;endArrow=none;endFill=0;" edge="1" parent="SoTEVqlD-ZGMPwPlBJG8-1" source="N_ucVqVdbEi61Vxu9FL0-9" target="N_ucVqVdbEi61Vxu9FL0-10">
          <mxGeometry relative="1" as="geometry" />
        </mxCell>
        <mxCell id="N_ucVqVdbEi61Vxu9FL0-9" value="File Explorer" style="rounded=0;whiteSpace=wrap;html=1;" vertex="1" parent="SoTEVqlD-ZGMPwPlBJG8-1">
          <mxGeometry x="640" y="36" width="100" height="40" as="geometry" />
        </mxCell>
        <mxCell id="N_ucVqVdbEi61Vxu9FL0-18" style="edgeStyle=orthogonalEdgeStyle;rounded=0;orthogonalLoop=1;jettySize=auto;html=1;exitX=1;exitY=0.5;exitDx=0;exitDy=0;entryX=0.509;entryY=0.491;entryDx=0;entryDy=0;entryPerimeter=0;dashed=1;fontSize=9;endArrow=none;endFill=0;" edge="1" parent="SoTEVqlD-ZGMPwPlBJG8-1" source="N_ucVqVdbEi61Vxu9FL0-10" target="N_ucVqVdbEi61Vxu9FL0-17">
          <mxGeometry relative="1" as="geometry" />
        </mxCell>
        <mxCell id="N_ucVqVdbEi61Vxu9FL0-10" value="" style="rounded=0;whiteSpace=wrap;html=1;rotation=90;" vertex="1" parent="SoTEVqlD-ZGMPwPlBJG8-1">
          <mxGeometry x="653.4" y="496.53" width="73.23" height="10" as="geometry" />
        </mxCell>
        <mxCell id="N_ucVqVdbEi61Vxu9FL0-12" value="" style="endArrow=block;html=1;rounded=0;fontSize=10;endFill=1;exitX=0.954;exitY=-0.003;exitDx=0;exitDy=0;exitPerimeter=0;entryX=0.013;entryY=1.001;entryDx=0;entryDy=0;entryPerimeter=0;" edge="1" parent="SoTEVqlD-ZGMPwPlBJG8-1" source="N_ucVqVdbEi61Vxu9FL0-1" target="N_ucVqVdbEi61Vxu9FL0-10">
          <mxGeometry width="50" height="50" relative="1" as="geometry">
            <mxPoint x="560" y="466.0000000000001" as="sourcePoint" />
            <mxPoint x="680" y="466" as="targetPoint" />
          </mxGeometry>
        </mxCell>
        <mxCell id="N_ucVqVdbEi61Vxu9FL0-13" value="Open" style="text;html=1;align=center;verticalAlign=middle;resizable=0;points=[];autosize=1;strokeColor=none;fillColor=none;fontSize=9;" vertex="1" parent="SoTEVqlD-ZGMPwPlBJG8-1">
          <mxGeometry x="595" y="446" width="40" height="20" as="geometry" />
        </mxCell>
        <mxCell id="N_ucVqVdbEi61Vxu9FL0-14" value="" style="endArrow=block;html=1;rounded=0;fontSize=10;endFill=1;entryX=0.437;entryY=1.005;entryDx=0;entryDy=0;entryPerimeter=0;exitX=0.721;exitY=-0.001;exitDx=0;exitDy=0;exitPerimeter=0;" edge="1" parent="SoTEVqlD-ZGMPwPlBJG8-1" source="SoTEVqlD-ZGMPwPlBJG8-26" target="N_ucVqVdbEi61Vxu9FL0-10">
          <mxGeometry width="50" height="50" relative="1" as="geometry">
            <mxPoint x="78.62068965517241" y="496" as="sourcePoint" />
            <mxPoint x="680" y="496.9999999999999" as="targetPoint" />
          </mxGeometry>
        </mxCell>
        <mxCell id="N_ucVqVdbEi61Vxu9FL0-15" value="Select file" style="text;html=1;align=center;verticalAlign=middle;resizable=0;points=[];autosize=1;strokeColor=none;fillColor=none;fontSize=9;" vertex="1" parent="SoTEVqlD-ZGMPwPlBJG8-1">
          <mxGeometry x="351.5" y="476" width="50" height="20" as="geometry" />
        </mxCell>
        <mxCell id="N_ucVqVdbEi61Vxu9FL0-16" value="" style="rounded=0;whiteSpace=wrap;html=1;rotation=90;" vertex="1" parent="SoTEVqlD-ZGMPwPlBJG8-1">
          <mxGeometry x="493.73" y="582.17" width="100.52" height="10" as="geometry" />
        </mxCell>
        <mxCell id="N_ucVqVdbEi61Vxu9FL0-17" value="" style="shape=umlDestroy;whiteSpace=wrap;html=1;strokeWidth=3;fontSize=9;" vertex="1" parent="SoTEVqlD-ZGMPwPlBJG8-1">
          <mxGeometry x="682.51" y="556" width="15.01" height="16" as="geometry" />
        </mxCell>
        <mxCell id="N_ucVqVdbEi61Vxu9FL0-19" style="rounded=0;orthogonalLoop=1;jettySize=auto;html=1;fontSize=10;endArrow=open;endFill=0;dashed=1;exitX=0.971;exitY=1.028;exitDx=0;exitDy=0;exitPerimeter=0;entryX=0;entryY=0;entryDx=0;entryDy=0;" edge="1" parent="SoTEVqlD-ZGMPwPlBJG8-1" source="N_ucVqVdbEi61Vxu9FL0-10" target="N_ucVqVdbEi61Vxu9FL0-16">
          <mxGeometry relative="1" as="geometry">
            <mxPoint x="682.51" y="536" as="sourcePoint" />
            <mxPoint x="553.01" y="536" as="targetPoint" />
            <Array as="points">
              <mxPoint x="623.01" y="536" />
            </Array>
          </mxGeometry>
        </mxCell>
        <mxCell id="N_ucVqVdbEi61Vxu9FL0-20" value="File for loading" style="text;html=1;align=center;verticalAlign=middle;resizable=0;points=[];autosize=1;strokeColor=none;fillColor=none;fontSize=9;" vertex="1" parent="SoTEVqlD-ZGMPwPlBJG8-1">
          <mxGeometry x="580" y="516" width="70" height="20" as="geometry" />
        </mxCell>
        <mxCell id="N_ucVqVdbEi61Vxu9FL0-22" style="edgeStyle=orthogonalEdgeStyle;rounded=0;orthogonalLoop=1;jettySize=auto;html=1;exitX=0.25;exitY=0;exitDx=0;exitDy=0;entryX=0.785;entryY=0.023;entryDx=0;entryDy=0;entryPerimeter=0;fontSize=9;endArrow=block;endFill=1;curved=1;" edge="1" parent="SoTEVqlD-ZGMPwPlBJG8-1" source="SoTEVqlD-ZGMPwPlBJG8-7" target="SoTEVqlD-ZGMPwPlBJG8-7">
          <mxGeometry relative="1" as="geometry" />
        </mxCell>
        <mxCell id="N_ucVqVdbEi61Vxu9FL0-23" style="rounded=0;orthogonalLoop=1;jettySize=auto;html=1;fontSize=10;endArrow=open;endFill=0;dashed=1;exitX=0.089;exitY=1.012;exitDx=0;exitDy=0;exitPerimeter=0;entryX=0.813;entryY=-0.002;entryDx=0;entryDy=0;entryPerimeter=0;" edge="1" parent="SoTEVqlD-ZGMPwPlBJG8-1" source="N_ucVqVdbEi61Vxu9FL0-16" target="SoTEVqlD-ZGMPwPlBJG8-26">
          <mxGeometry relative="1" as="geometry">
            <mxPoint x="531" y="546" as="sourcePoint" />
            <mxPoint x="80" y="546" as="targetPoint" />
            <Array as="points">
              <mxPoint x="471.5" y="546" />
            </Array>
          </mxGeometry>
        </mxCell>
        <mxCell id="N_ucVqVdbEi61Vxu9FL0-24" value="Submission Parameters Request" style="text;html=1;align=center;verticalAlign=middle;resizable=0;points=[];autosize=1;strokeColor=none;fillColor=none;fontSize=9;" vertex="1" parent="SoTEVqlD-ZGMPwPlBJG8-1">
          <mxGeometry x="224.95999999999998" y="526" width="150" height="20" as="geometry" />
        </mxCell>
        <mxCell id="N_ucVqVdbEi61Vxu9FL0-25" value="" style="endArrow=block;html=1;rounded=0;fontSize=10;endFill=1;exitX=0.863;exitY=0.002;exitDx=0;exitDy=0;exitPerimeter=0;entryX=0.36;entryY=0.954;entryDx=0;entryDy=0;entryPerimeter=0;" edge="1" parent="SoTEVqlD-ZGMPwPlBJG8-1" source="SoTEVqlD-ZGMPwPlBJG8-26" target="N_ucVqVdbEi61Vxu9FL0-16">
          <mxGeometry width="50" height="50" relative="1" as="geometry">
            <mxPoint x="80" y="573" as="sourcePoint" />
            <mxPoint x="535" y="573" as="targetPoint" />
          </mxGeometry>
        </mxCell>
        <mxCell id="N_ucVqVdbEi61Vxu9FL0-26" value="Submission Parameters" style="text;html=1;align=center;verticalAlign=middle;resizable=0;points=[];autosize=1;strokeColor=none;fillColor=none;fontSize=9;" vertex="1" parent="SoTEVqlD-ZGMPwPlBJG8-1">
          <mxGeometry x="244.95999999999998" y="554" width="110" height="20" as="geometry" />
        </mxCell>
        <mxCell id="N_ucVqVdbEi61Vxu9FL0-27" value="" style="endArrow=block;html=1;rounded=0;fontSize=10;endFill=1;entryX=0.638;entryY=0.977;entryDx=0;entryDy=0;entryPerimeter=0;exitX=0.914;exitY=0.001;exitDx=0;exitDy=0;exitPerimeter=0;" edge="1" parent="SoTEVqlD-ZGMPwPlBJG8-1" source="SoTEVqlD-ZGMPwPlBJG8-26" target="N_ucVqVdbEi61Vxu9FL0-16">
          <mxGeometry width="50" height="50" relative="1" as="geometry">
            <mxPoint x="80" y="600.96" as="sourcePoint" />
            <mxPoint x="534.96" y="600.96" as="targetPoint" />
          </mxGeometry>
        </mxCell>
        <mxCell id="N_ucVqVdbEi61Vxu9FL0-28" value="Submission Confirmation" style="text;html=1;align=center;verticalAlign=middle;resizable=0;points=[];autosize=1;strokeColor=none;fillColor=none;fontSize=9;" vertex="1" parent="SoTEVqlD-ZGMPwPlBJG8-1">
          <mxGeometry x="239.95999999999998" y="581.96" width="120" height="20" as="geometry" />
        </mxCell>
        <mxCell id="N_ucVqVdbEi61Vxu9FL0-30" style="rounded=0;orthogonalLoop=1;jettySize=auto;html=1;fontSize=10;endArrow=open;endFill=0;dashed=1;entryX=0.25;entryY=0;entryDx=0;entryDy=0;exitX=1;exitY=1;exitDx=0;exitDy=0;" edge="1" parent="SoTEVqlD-ZGMPwPlBJG8-1" source="N_ucVqVdbEi61Vxu9FL0-16" target="N_ucVqVdbEi61Vxu9FL0-29">
          <mxGeometry relative="1" as="geometry">
            <mxPoint x="530.96" y="636.0000000000001" as="sourcePoint" />
            <mxPoint x="224.95999999999998" y="636.0000000000001" as="targetPoint" />
          </mxGeometry>
        </mxCell>
        <mxCell id="N_ucVqVdbEi61Vxu9FL0-31" value="UC Contents" style="text;html=1;align=center;verticalAlign=middle;resizable=0;points=[];autosize=1;strokeColor=none;fillColor=none;fontSize=9;" vertex="1" parent="SoTEVqlD-ZGMPwPlBJG8-1">
          <mxGeometry x="341.5" y="616" width="70" height="20" as="geometry" />
        </mxCell>
        <mxCell id="N_ucVqVdbEi61Vxu9FL0-29" value="" style="rounded=0;whiteSpace=wrap;html=1;rotation=90;" vertex="1" parent="SoTEVqlD-ZGMPwPlBJG8-1">
          <mxGeometry x="203.31" y="633.97" width="13.42" height="10" as="geometry" />
        </mxCell>
        <mxCell id="N_ucVqVdbEi61Vxu9FL0-33" style="edgeStyle=none;rounded=0;orthogonalLoop=1;jettySize=auto;html=1;exitX=1;exitY=0.5;exitDx=0;exitDy=0;dashed=1;fontSize=9;endArrow=none;endFill=0;" edge="1" parent="1" source="N_ucVqVdbEi61Vxu9FL0-16">
          <mxGeometry relative="1" as="geometry">
            <mxPoint x="569" y="720" as="targetPoint" />
          </mxGeometry>
        </mxCell>
        <mxCell id="N_ucVqVdbEi61Vxu9FL0-34" style="edgeStyle=none;rounded=0;orthogonalLoop=1;jettySize=auto;html=1;exitX=1;exitY=0.5;exitDx=0;exitDy=0;dashed=1;fontSize=9;endArrow=none;endFill=0;" edge="1" parent="1" source="SoTEVqlD-ZGMPwPlBJG8-26">
          <mxGeometry relative="1" as="geometry">
            <mxPoint x="88" y="720" as="targetPoint" />
          </mxGeometry>
        </mxCell>
        <mxCell id="N_ucVqVdbEi61Vxu9FL0-35" style="edgeStyle=none;rounded=0;orthogonalLoop=1;jettySize=auto;html=1;exitX=1;exitY=0.5;exitDx=0;exitDy=0;dashed=1;fontSize=9;endArrow=none;endFill=0;" edge="1" parent="1" source="N_ucVqVdbEi61Vxu9FL0-29">
          <mxGeometry relative="1" as="geometry">
            <mxPoint x="235" y="720" as="targetPoint" />
          </mxGeometry>
        </mxCell>
        <mxCell id="N_ucVqVdbEi61Vxu9FL0-36" value="AS-EX 4.2&lt;br&gt;Grupo 601 (DF, DC, ST, FC)&lt;br&gt;v2022/03/30" style="shape=note2;boundedLbl=1;whiteSpace=wrap;html=1;size=11;verticalAlign=top;align=left;fontSize=9;fillColor=#dae8fc;strokeColor=#6c8ebf;" vertex="1" parent="1">
          <mxGeometry x="25" y="750" width="125" height="50" as="geometry" />
        </mxCell>
      </root>
    </mxGraphModel>
  </diagram>
  <diagram id="L5uJk-dwBL03DwltUghx" name="4.4 Cache State Machine">
    <mxGraphModel dx="1929" dy="857" grid="1" gridSize="10" guides="1" tooltips="1" connect="1" arrows="1" fold="1" page="1" pageScale="1" pageWidth="827" pageHeight="1169" math="0" shadow="0">
      <root>
        <mxCell id="AHBp3_VRvHWnM_W1ek0z-0" />
        <mxCell id="AHBp3_VRvHWnM_W1ek0z-1" parent="AHBp3_VRvHWnM_W1ek0z-0" />
        <mxCell id="AHBp3_VRvHWnM_W1ek0z-9" style="edgeStyle=orthogonalEdgeStyle;rounded=0;orthogonalLoop=1;jettySize=auto;html=1;exitX=1;exitY=0.5;exitDx=0;exitDy=0;curved=1;startArrow=none;" parent="AHBp3_VRvHWnM_W1ek0z-1" source="AHBp3_VRvHWnM_W1ek0z-20" target="AHBp3_VRvHWnM_W1ek0z-3" edge="1">
          <mxGeometry relative="1" as="geometry" />
        </mxCell>
        <mxCell id="06BxQjRZ9kkwflxCcMQA-0" style="edgeStyle=orthogonalEdgeStyle;curved=1;rounded=0;orthogonalLoop=1;jettySize=auto;html=1;exitX=0.75;exitY=0;exitDx=0;exitDy=0;endArrow=classic;endFill=1;entryX=0.5;entryY=0;entryDx=0;entryDy=0;startArrow=none;" parent="AHBp3_VRvHWnM_W1ek0z-1" source="06BxQjRZ9kkwflxCcMQA-1" target="AHBp3_VRvHWnM_W1ek0z-2" edge="1">
          <mxGeometry relative="1" as="geometry">
            <mxPoint x="50" y="70" as="targetPoint" />
            <Array as="points">
              <mxPoint x="15" y="40" />
              <mxPoint x="80" y="40" />
            </Array>
          </mxGeometry>
        </mxCell>
        <mxCell id="AHBp3_VRvHWnM_W1ek0z-2" value="" style="shape=ellipse;html=1;fillColor=#000000;fontSize=18;fontColor=#ffffff;" parent="AHBp3_VRvHWnM_W1ek0z-1" vertex="1">
          <mxGeometry x="60" y="90" width="40" height="40" as="geometry" />
        </mxCell>
        <mxCell id="06BxQjRZ9kkwflxCcMQA-16" style="edgeStyle=orthogonalEdgeStyle;curved=1;rounded=0;orthogonalLoop=1;jettySize=auto;html=1;exitX=1;exitY=0.5;exitDx=0;exitDy=0;entryX=0;entryY=0.5;entryDx=0;entryDy=0;endArrow=classic;endFill=1;" parent="AHBp3_VRvHWnM_W1ek0z-1" source="AHBp3_VRvHWnM_W1ek0z-3" target="AHBp3_VRvHWnM_W1ek0z-4" edge="1">
          <mxGeometry relative="1" as="geometry" />
        </mxCell>
        <mxCell id="AHBp3_VRvHWnM_W1ek0z-3" value="New" style="rounded=1;whiteSpace=wrap;html=1;" parent="AHBp3_VRvHWnM_W1ek0z-1" vertex="1">
          <mxGeometry x="280" y="80" width="120" height="60" as="geometry" />
        </mxCell>
        <mxCell id="k6s4VyVISrtGLycESjMs-0" style="edgeStyle=orthogonalEdgeStyle;rounded=0;orthogonalLoop=1;jettySize=auto;html=1;exitX=0;exitY=1;exitDx=0;exitDy=0;entryX=0;entryY=0;entryDx=0;entryDy=0;" parent="AHBp3_VRvHWnM_W1ek0z-1" source="AHBp3_VRvHWnM_W1ek0z-4" target="AHBp3_VRvHWnM_W1ek0z-11" edge="1">
          <mxGeometry relative="1" as="geometry" />
        </mxCell>
        <mxCell id="AHBp3_VRvHWnM_W1ek0z-4" value="Update" style="rounded=1;whiteSpace=wrap;html=1;" parent="AHBp3_VRvHWnM_W1ek0z-1" vertex="1">
          <mxGeometry x="480" y="80" width="120" height="60" as="geometry" />
        </mxCell>
        <mxCell id="AHBp3_VRvHWnM_W1ek0z-5" value="Remove" style="rounded=1;whiteSpace=wrap;html=1;" parent="AHBp3_VRvHWnM_W1ek0z-1" vertex="1">
          <mxGeometry x="280" y="500" width="120" height="60" as="geometry" />
        </mxCell>
        <mxCell id="AHBp3_VRvHWnM_W1ek0z-6" value="Dirty" style="rounded=1;whiteSpace=wrap;html=1;" parent="AHBp3_VRvHWnM_W1ek0z-1" vertex="1">
          <mxGeometry x="480" y="500" width="120" height="60" as="geometry" />
        </mxCell>
        <mxCell id="AHBp3_VRvHWnM_W1ek0z-7" value="Miss" style="rounded=1;whiteSpace=wrap;html=1;" parent="AHBp3_VRvHWnM_W1ek0z-1" vertex="1">
          <mxGeometry x="680" y="505" width="120" height="60" as="geometry" />
        </mxCell>
        <mxCell id="k6s4VyVISrtGLycESjMs-1" style="edgeStyle=orthogonalEdgeStyle;rounded=0;orthogonalLoop=1;jettySize=auto;html=1;exitX=0.5;exitY=0;exitDx=0;exitDy=0;entryX=1;entryY=1;entryDx=0;entryDy=0;startArrow=none;" parent="AHBp3_VRvHWnM_W1ek0z-1" source="06BxQjRZ9kkwflxCcMQA-9" target="AHBp3_VRvHWnM_W1ek0z-4" edge="1">
          <mxGeometry relative="1" as="geometry">
            <Array as="points" />
          </mxGeometry>
        </mxCell>
        <mxCell id="k6s4VyVISrtGLycESjMs-3" style="edgeStyle=orthogonalEdgeStyle;rounded=0;orthogonalLoop=1;jettySize=auto;html=1;exitX=0.5;exitY=1;exitDx=0;exitDy=0;entryX=0.5;entryY=0;entryDx=0;entryDy=0;startArrow=none;" parent="AHBp3_VRvHWnM_W1ek0z-1" source="06BxQjRZ9kkwflxCcMQA-15" target="AHBp3_VRvHWnM_W1ek0z-6" edge="1">
          <mxGeometry relative="1" as="geometry" />
        </mxCell>
        <mxCell id="k6s4VyVISrtGLycESjMs-5" style="edgeStyle=orthogonalEdgeStyle;rounded=0;orthogonalLoop=1;jettySize=auto;html=1;entryX=0.75;entryY=0;entryDx=0;entryDy=0;startArrow=none;exitX=0.4;exitY=0.833;exitDx=0;exitDy=0;exitPerimeter=0;" parent="AHBp3_VRvHWnM_W1ek0z-1" source="06BxQjRZ9kkwflxCcMQA-14" target="AHBp3_VRvHWnM_W1ek0z-5" edge="1">
          <mxGeometry relative="1" as="geometry">
            <mxPoint x="370" y="420" as="sourcePoint" />
            <Array as="points" />
          </mxGeometry>
        </mxCell>
        <mxCell id="k6s4VyVISrtGLycESjMs-7" style="edgeStyle=orthogonalEdgeStyle;rounded=0;orthogonalLoop=1;jettySize=auto;html=1;exitX=0.5;exitY=1;exitDx=0;exitDy=0;entryX=0.25;entryY=0;entryDx=0;entryDy=0;startArrow=none;" parent="AHBp3_VRvHWnM_W1ek0z-1" source="06BxQjRZ9kkwflxCcMQA-10" target="AHBp3_VRvHWnM_W1ek0z-7" edge="1">
          <mxGeometry relative="1" as="geometry">
            <Array as="points">
              <mxPoint x="710" y="440" />
            </Array>
          </mxGeometry>
        </mxCell>
        <mxCell id="AHBp3_VRvHWnM_W1ek0z-11" value="Idle" style="rounded=1;whiteSpace=wrap;html=1;" parent="AHBp3_VRvHWnM_W1ek0z-1" vertex="1">
          <mxGeometry x="480" y="290" width="120" height="60" as="geometry" />
        </mxCell>
        <mxCell id="06BxQjRZ9kkwflxCcMQA-1" value="Put[Valid] =&amp;nbsp; 0" style="text;html=1;strokeColor=none;fillColor=none;align=center;verticalAlign=middle;whiteSpace=wrap;rounded=0;" parent="AHBp3_VRvHWnM_W1ek0z-1" vertex="1">
          <mxGeometry x="-30" y="60" width="60" height="30" as="geometry" />
        </mxCell>
        <mxCell id="06BxQjRZ9kkwflxCcMQA-7" value="" style="edgeStyle=orthogonalEdgeStyle;curved=1;rounded=0;orthogonalLoop=1;jettySize=auto;html=1;exitX=0;exitY=0.5;exitDx=0;exitDy=0;endArrow=none;endFill=1;entryX=0.5;entryY=1;entryDx=0;entryDy=0;" parent="AHBp3_VRvHWnM_W1ek0z-1" source="AHBp3_VRvHWnM_W1ek0z-2" target="06BxQjRZ9kkwflxCcMQA-1" edge="1">
          <mxGeometry relative="1" as="geometry">
            <mxPoint y="110" as="targetPoint" />
            <mxPoint x="60" y="110" as="sourcePoint" />
            <Array as="points">
              <mxPoint y="110" />
            </Array>
          </mxGeometry>
        </mxCell>
        <mxCell id="AHBp3_VRvHWnM_W1ek0z-20" value="Put[Valid] = 1&lt;br&gt;Put[Existing] = 0" style="text;html=1;strokeColor=none;fillColor=none;align=center;verticalAlign=middle;whiteSpace=wrap;rounded=0;" parent="AHBp3_VRvHWnM_W1ek0z-1" vertex="1">
          <mxGeometry x="130" y="95" width="60" height="30" as="geometry" />
        </mxCell>
        <mxCell id="06BxQjRZ9kkwflxCcMQA-8" value="" style="edgeStyle=orthogonalEdgeStyle;rounded=0;orthogonalLoop=1;jettySize=auto;html=1;exitX=1;exitY=0.5;exitDx=0;exitDy=0;curved=1;endArrow=none;" parent="AHBp3_VRvHWnM_W1ek0z-1" source="AHBp3_VRvHWnM_W1ek0z-2" target="AHBp3_VRvHWnM_W1ek0z-20" edge="1">
          <mxGeometry relative="1" as="geometry">
            <mxPoint x="100" y="110" as="sourcePoint" />
            <mxPoint x="280" y="110" as="targetPoint" />
          </mxGeometry>
        </mxCell>
        <mxCell id="06BxQjRZ9kkwflxCcMQA-13" value="1 = True&lt;br&gt;0 = False" style="text;html=1;strokeColor=none;fillColor=none;align=center;verticalAlign=middle;whiteSpace=wrap;rounded=0;" parent="AHBp3_VRvHWnM_W1ek0z-1" vertex="1">
          <mxGeometry y="290" width="60" height="30" as="geometry" />
        </mxCell>
        <mxCell id="06BxQjRZ9kkwflxCcMQA-9" value="Put[Existing] = 1&lt;br&gt;Put[Valid] =&amp;nbsp; 1" style="text;html=1;strokeColor=none;fillColor=none;align=center;verticalAlign=middle;whiteSpace=wrap;rounded=0;" parent="AHBp3_VRvHWnM_W1ek0z-1" vertex="1">
          <mxGeometry x="550" y="200" width="100" height="30" as="geometry" />
        </mxCell>
        <mxCell id="k6s4VyVISrtGLycESjMs-2" value="" style="edgeStyle=orthogonalEdgeStyle;rounded=0;orthogonalLoop=1;jettySize=auto;html=1;exitX=1;exitY=0;exitDx=0;exitDy=0;endArrow=none;" parent="AHBp3_VRvHWnM_W1ek0z-1" source="AHBp3_VRvHWnM_W1ek0z-11" edge="1">
          <mxGeometry relative="1" as="geometry">
            <mxPoint x="600" y="290" as="sourcePoint" />
            <mxPoint x="600" y="230" as="targetPoint" />
            <Array as="points">
              <mxPoint x="600" y="230" />
            </Array>
          </mxGeometry>
        </mxCell>
        <mxCell id="06BxQjRZ9kkwflxCcMQA-15" value="TTL[spent] = 1" style="text;html=1;strokeColor=none;fillColor=none;align=center;verticalAlign=middle;whiteSpace=wrap;rounded=0;" parent="AHBp3_VRvHWnM_W1ek0z-1" vertex="1">
          <mxGeometry x="498" y="410" width="85" height="30" as="geometry" />
        </mxCell>
        <mxCell id="k6s4VyVISrtGLycESjMs-4" value="" style="edgeStyle=orthogonalEdgeStyle;rounded=0;orthogonalLoop=1;jettySize=auto;html=1;exitX=0.5;exitY=1;exitDx=0;exitDy=0;entryX=0.5;entryY=0;entryDx=0;entryDy=0;endArrow=none;" parent="AHBp3_VRvHWnM_W1ek0z-1" source="AHBp3_VRvHWnM_W1ek0z-11" target="06BxQjRZ9kkwflxCcMQA-15" edge="1">
          <mxGeometry relative="1" as="geometry">
            <mxPoint x="540" y="350" as="sourcePoint" />
            <mxPoint x="540" y="500" as="targetPoint" />
          </mxGeometry>
        </mxCell>
        <mxCell id="06BxQjRZ9kkwflxCcMQA-14" value="Re-eval = 1 ||&lt;br&gt;Get[Existeing] = 1 &amp;amp;&amp;amp; &quot;Dirty&quot;" style="text;html=1;strokeColor=none;fillColor=none;align=center;verticalAlign=middle;whiteSpace=wrap;rounded=0;" parent="AHBp3_VRvHWnM_W1ek0z-1" vertex="1">
          <mxGeometry x="300" y="385" width="115" height="55" as="geometry" />
        </mxCell>
        <mxCell id="k6s4VyVISrtGLycESjMs-6" value="" style="edgeStyle=orthogonalEdgeStyle;rounded=0;orthogonalLoop=1;jettySize=auto;html=1;exitX=0;exitY=1;exitDx=0;exitDy=0;entryX=0.5;entryY=0;entryDx=0;entryDy=0;endArrow=none;" parent="AHBp3_VRvHWnM_W1ek0z-1" source="AHBp3_VRvHWnM_W1ek0z-11" target="06BxQjRZ9kkwflxCcMQA-14" edge="1">
          <mxGeometry relative="1" as="geometry">
            <mxPoint x="480" y="350" as="sourcePoint" />
            <mxPoint x="370" y="500" as="targetPoint" />
            <Array as="points">
              <mxPoint x="480" y="370" />
              <mxPoint x="358" y="370" />
            </Array>
          </mxGeometry>
        </mxCell>
        <mxCell id="06BxQjRZ9kkwflxCcMQA-10" value="GET[Inexisting] = 1" style="text;html=1;strokeColor=none;fillColor=none;align=center;verticalAlign=middle;whiteSpace=wrap;rounded=0;" parent="AHBp3_VRvHWnM_W1ek0z-1" vertex="1">
          <mxGeometry x="650" y="410" width="110" height="30" as="geometry" />
        </mxCell>
        <mxCell id="k6s4VyVISrtGLycESjMs-8" value="" style="edgeStyle=orthogonalEdgeStyle;rounded=0;orthogonalLoop=1;jettySize=auto;html=1;exitX=1;exitY=1;exitDx=0;exitDy=0;entryX=0.5;entryY=0;entryDx=0;entryDy=0;endArrow=none;" parent="AHBp3_VRvHWnM_W1ek0z-1" source="AHBp3_VRvHWnM_W1ek0z-11" target="06BxQjRZ9kkwflxCcMQA-10" edge="1">
          <mxGeometry relative="1" as="geometry">
            <mxPoint x="600" y="350" as="sourcePoint" />
            <mxPoint x="710" y="505" as="targetPoint" />
            <Array as="points" />
          </mxGeometry>
        </mxCell>
      </root>
    </mxGraphModel>
  </diagram>
</mxfile>
